<svg width="59" height="60" viewBox="0 0 59 60" fill="none" xmlns="http://www.w3.org/2000/svg">
<path d="M10.2435 34.8718H54.0897" stroke="#F7F3FF" stroke-width="2.92308" stroke-linecap="round" stroke-linejoin="round"/>
<path d="M12.6795 54.359L14.9463 52.0922C16.2343 50.8043 16.8783 50.1602 17.6898 49.7941C18.5013 49.4278 19.4103 49.371 21.2282 49.2575L29.1508 48.7623C33.0446 48.5189 34.9916 48.3971 36.7048 47.5745C38.4182 46.7517 39.7304 45.3082 42.3546 42.4214L49.218 34.8718H40.6924L36.325 39.2391C36.0347 39.5295 35.8893 39.6749 35.7382 39.8031C34.9612 40.4632 33.9966 40.8627 32.9805 40.9455C32.7828 40.9616 32.5774 40.9616 32.1667 40.9616M32.1667 40.9616C32.1667 39.8296 32.1667 39.2637 32.0732 38.7931C31.6888 36.8605 30.178 35.3497 28.2454 34.9654C27.7748 34.8718 27.2089 34.8718 26.077 34.8718H24.1733C21.6277 34.8718 20.3549 34.8718 19.1613 35.1788C18.2723 35.4072 17.4201 35.7602 16.6299 36.2272C15.5689 36.8542 14.6689 37.7542 12.8689 39.5544L5.37184 47.0513M32.1667 40.9616H23.6411" stroke="#F7F3FF" stroke-width="2.92308" stroke-linecap="round" stroke-linejoin="round"/>
<path d="M12.6795 28.7821C12.6795 18.0196 21.4042 9.2949 32.1667 9.2949M32.1667 9.2949C42.9292 9.2949 51.6539 18.0196 51.6539 28.7821M32.1667 9.2949V5.64105" stroke="#F7F3FF" stroke-width="2.92308" stroke-linecap="round" stroke-linejoin="round"/>
</svg>
